<svg xmlns="http://www.w3.org/2000/svg" viewBox="0 0 20 20" enable-background="new 0 0 20 20"><path d="M7.83 15.72l4.141-4.15c.199.707.204 1.437.015 2.189-.19.754-.559 1.404-1.105 1.95l-1.52 1.53c-.847.84-1.863 1.26-3.05 1.26-1.188 0-2.204-.42-3.051-1.26-.84-.84-1.26-1.856-1.26-3.05s.42-2.21 1.26-3.05l1.53-1.52c.547-.547 1.196-.915 1.95-1.105.753-.19 1.483-.188 2.19.005l-4.14 4.15c-.427.42-.64.927-.64 1.521 0 .593.213 1.104.64 1.53.42.42.927.63 1.521.63.592 0 1.099-.21 1.519-.63zm.76-2.29l5.341-5.34c.206-.207.31-.46.31-.76s-.104-.553-.31-.76c-.228-.213-.487-.316-.78-.31-.294.007-.544.11-.75.31l-5.33 5.34c-.207.207-.311.46-.311.76 0 .301.104.554.311.761.227.213.486.316.78.31.292-.009.539-.112.739-.311zm9.15-10.671c.84.847 1.26 1.864 1.26 3.051s-.42 2.204-1.26 3.05l-1.53 1.52c-.547.547-1.196.915-1.95 1.105-.753.189-1.483.185-2.189-.015l2.62-2.61.76-.77.76-.76c.42-.42.63-.927.63-1.52s-.21-1.1-.63-1.52c-.42-.427-.927-.64-1.52-.64-.594 0-1.101.213-1.521.64l-.77.76-3.38 3.38c-.193-.707-.195-1.437-.005-2.19.189-.753.558-1.403 1.104-1.95l1.521-1.53c.846-.84 1.864-1.26 3.055-1.26 1.189 0 2.205.419 3.045 1.259zm-9.91 12.961l4.141-4.15c.199.707.204 1.437.015 2.189-.19.754-.559 1.404-1.105 1.95l-1.52 1.53c-.847.84-1.863 1.26-3.05 1.26-1.188 0-2.204-.42-3.051-1.26-.84-.84-1.26-1.856-1.26-3.05s.42-2.21 1.26-3.05l1.53-1.52c.547-.547 1.196-.915 1.95-1.105.753-.19 1.483-.188 2.19.005l-4.14 4.15c-.427.42-.64.927-.64 1.521 0 .593.213 1.104.64 1.53.42.42.927.63 1.521.63.592 0 1.099-.21 1.519-.63zm.76-2.29l5.341-5.34c.206-.207.31-.46.31-.76s-.104-.553-.31-.76c-.228-.213-.487-.316-.78-.31-.294.007-.544.11-.75.31l-5.33 5.34c-.207.207-.311.46-.311.76 0 .301.104.554.311.761.227.213.486.316.78.31.292-.009.539-.112.739-.311zm9.15-10.671c.84.847 1.26 1.864 1.26 3.051s-.42 2.204-1.26 3.05l-1.53 1.52c-.547.547-1.196.915-1.95 1.105-.753.189-1.483.185-2.189-.015l2.62-2.61.76-.77.76-.76c.42-.42.63-.927.63-1.52s-.21-1.1-.63-1.52c-.42-.427-.927-.64-1.52-.64-.594 0-1.101.213-1.521.64l-.77.76-3.38 3.38c-.193-.707-.195-1.437-.005-2.19.189-.753.558-1.403 1.104-1.95l1.521-1.53c.846-.84 1.864-1.26 3.055-1.26 1.189 0 2.205.419 3.045 1.259z"/></svg>