<svg xmlns="http://www.w3.org/2000/svg" viewBox="0 0 20 20" enable-background="new 0 0 20 20"><path d="M17.705 16.705c-.197.196-.432.295-.705.295h-13c-.273 0-.508-.099-.705-.295-.197-.197-.295-.432-.295-.705v-12c0-.273.098-.508.295-.705.197-.197.432-.295.705-.295h13c.273 0 .508.099.705.295.196.196.295.431.295.705v12c0 .273-.099.508-.295.705zm-9.705-11.205c0-.14-.048-.258-.145-.355s-.215-.145-.355-.145-.258.048-.355.145-.145.214-.145.355v5.5h-1c-.273 0-.508.099-.705.295s-.295.432-.295.705.098.508.295.705c.197.196.432.295.705.295h1v1.5c0 .14.048.258.145.354s.215.146.355.146.258-.049.355-.146.145-.214.145-.354v-1.5h1c.273 0 .508-.099.705-.295.196-.197.295-.432.295-.705s-.099-.509-.295-.705c-.197-.196-.432-.295-.705-.295h-1v-5.5zm5 9c0 .14.048.258.145.354s.215.146.355.146.258-.049.355-.146.145-.214.145-.354v-5.5h1c.273 0 .508-.098.705-.295.196-.197.295-.432.295-.705s-.099-.508-.295-.705c-.197-.197-.432-.295-.705-.295h-1v-1.5c0-.14-.048-.258-.145-.355s-.215-.145-.355-.145-.258.048-.355.145-.145.214-.145.355v1.5h-1c-.273 0-.508.099-.705.295-.197.196-.295.431-.295.705s.098.508.295.705.432.295.705.295h1v5.5z"/></svg>