<svg viewBox="0 0 20 20" class="dashicons-bundle"><symbol viewBox="0 0 20 20" id="dashicons-admin-links"><title>admin-links</title><path d="M17.74 2.76Q19 4.03 19 5.81t-1.26 3.05l-1.53 1.52q-.82.82-1.95 1.105t-2.19-.015l2.62-2.61.76-.77.76-.76q.63-.63.63-1.52t-.63-1.52q-.63-.64-1.52-.64t-1.52.64l-.77.76-3.38 3.38q-.29-1.06-.005-2.19t1.105-1.95l1.52-1.53q1.27-1.26 3.055-1.26t3.045 1.26zM8.59 13.43l5.34-5.34q.31-.31.31-.76t-.31-.76q-.34-.32-.78-.31t-.75.31l-5.33 5.34q-.31.31-.31.76t.31.76q.34.32.78.31t.74-.31zm-.76 2.29l4.14-4.15q.3 1.06.015 2.19t-1.105 1.95l-1.52 1.53Q8.09 18.5 6.31 18.5t-3.05-1.26Q2 15.98 2 14.19t1.26-3.05l1.53-1.52q.82-.82 1.95-1.105t2.19.005l-4.14 4.15q-.64.63-.64 1.52t.64 1.53q.63.63 1.52.63t1.52-.63z"/></symbol><symbol viewBox="0 0 20 20" id="dashicons-camera"><title>camera</title><path d="M6 5V3H3v2h3zm12 10V4H9L7 6H2v9h16zm-7-8q1.24 0 2.12.88T14 10t-.88 2.12T11 13t-2.12-.88T8 10t.88-2.12T11 7z"/></symbol><symbol viewBox="0 0 20 20" id="dashicons-edit"><title>edit</title><path d="M13.89 3.39l2.71 2.72q.34.35.335.84t-.305.8l-8.01 8.02-5.56 1.16 1.16-5.58q7.6-7.63 7.99-8.03.29-.3.815-.285t.865.355zm-2.73 2.79l-5.59 5.61 1.11 1.11 5.54-5.65zm-2.97 8.23l5.58-5.6-1.07-1.08-5.59 5.6z"/></symbol><symbol viewBox="0 0 20 20" id="dashicons-editor-bold"><title>editor-bold</title><path d="M6 4v13h4.54q2.07 0 3.26-1 1.2-.99 1.2-2.77 0-1.26-.51-2.01-.52-.76-1.67-1.03v-.09q.85-.15 1.36-.9t.51-1.91q0-1.72-1.17-2.5Q12.37 4 9.78 4H6zm2.57 5.15V6.26h1.36q1.09 0 1.61.32.51.33.51 1.07 0 .8-.47 1.15t-1.51.35h-1.5zm0 2.19h1.6q2.16 0 2.16 1.61 0 .91-.51 1.34-.5.43-1.57.43H8.57v-3.38z"/></symbol><symbol viewBox="0 0 20 20" id="dashicons-editor-italic"><title>editor-italic</title><path d="M14.78 6h-2.13l-2.8 9h2.12l-.62 2H4.6l.62-2h2.14l2.8-9H8.03l.62-2h6.75z"/></symbol><symbol viewBox="0 0 20 20" id="dashicons-editor-quote"><title>editor-quote</title><path d="M9.49 13.22q0-1.13-.61-1.9-.43-.53-1.17-.695T6.35 10.6q-.21-1.22.665-2.59T9.27 5.95L7.88 4q-1.06.51-1.995 1.29T4.21 7.085t-1.1 2.31-.19 2.655q.22 1.8 1.195 2.875T6.54 16q1.28 0 2.12-.75.83-.74.83-2.03zm8.05 0q0-1.13-.61-1.9-.43-.54-1.17-.7t-1.36-.02q-.21-1.22.665-2.59t2.255-2.06L15.93 4q-1.06.51-1.995 1.29t-1.67 1.795-1.095 2.31-.19 2.655q.22 1.8 1.19 2.875T14.59 16q1.28 0 2.12-.75.83-.74.83-2.03z"/></symbol><symbol viewBox="0 0 20 20" id="dashicons-editor-ul"><title>editor-ul</title><path d="M5.5 7q-.62 0-1.06-.44T4 5.5t.44-1.06T5.5 4t1.06.44T7 5.5t-.44 1.06T5.5 7zM8 5h9v1H8V5zm-2.5 7q-.62 0-1.06-.44T4 10.5t.44-1.06T5.5 9t1.06.44T7 10.5t-.44 1.06T5.5 12zM8 10h9v1H8v-1zm-2.5 7q-.62 0-1.06-.44T4 15.5t.44-1.06T5.5 14t1.06.44T7 15.5t-.44 1.06T5.5 17zM8 15h9v1H8v-1z"/></symbol><symbol viewBox="0 0 20 20" id="dashicons-editor-unlink"><title>editor-unlink</title><path d="M17.74 2.26Q19 3.53 19 5.31t-1.26 3.05l-1.53 1.52q-.45.46-1.08.77L13 10l1.69-1.64.76-.77.76-.76q.63-.63.63-1.52t-.63-1.52q-.63-.64-1.52-.64t-1.52.64l-.77.76-.76.76L10 7l-.65-2.14q.31-.63.77-1.07l1.52-1.53Q12.91 1 14.695 1t3.045 1.26zM2 4l8 6-6-8zm4-2l4 8-2-8H6zM2 6l8 4-8-2V6zm7.36 7.69L10 13l.74 2.35-1.38 1.39Q8.09 18 6.31 18t-3.05-1.26Q2 15.48 2 13.69t1.26-3.05l1.39-1.38L7 10l-.69.64-1.52 1.53q-.64.63-.64 1.52t.64 1.52q.63.64 1.52.64t1.52-.64zM18 16l-8-6 6 8zm-4 2l-4-8 2 8h2zm4-4l-8-4 8 2v2z"/></symbol><symbol viewBox="0 0 20 20" id="dashicons-images-alt2"><title>images-alt2</title><path d="M5 3h14v11h-2v2h-2v2H1V7h2V5h2V3zm13 10V4H6v9h12zm-3-4q-.82 0-1.41-.59T13 7t.59-1.41T15 5t1.41.59T17 7t-.59 1.41T15 9zm1 6v-1H5V6H4v9h12zM7 6l10 6H7V6zm7 11v-1H3V8H2v9h12z"/></symbol><symbol viewBox="0 0 20 20" id="dashicons-no"><title>no</title><path d="M15.55 13.7l-2.19 2.06-3.42-3.65-3.64 3.43-2.06-2.18 3.64-3.43-3.42-3.64 2.18-2.06 3.43 3.64 3.64-3.42 2.05 2.18-3.64 3.43z"/></symbol><symbol viewBox="0 0 20 20" id="dashicons-plus"><title>plus</title><path d="M17 7v3h-5v5H9v-5H4V7h5V2h3v5h5z"/></symbol><symbol viewBox="0 0 20 20" id="dashicons-wordpress-alt"><title>wordpress-alt</title><path d="M20 10q0-2.03-.795-3.88T17.07 2.93 13.88.795 10 0 6.115.795 2.92 2.93.79 6.12 0 10q0 1.63.505 3.155t1.43 2.755 2.155 2.155 2.755 1.43T10 20q2.03 0 3.88-.79t3.19-2.13 2.135-3.195T20 10zM7.78 15.37L4.37 6.22l1.17-.08q.24-.03.32-.31t-.03-.545-.35-.255q-1.45.11-2.37.11-.37 0-.58-.01 1.21-1.86 3.185-2.94T10 1.11q1.72 0 3.275.61t2.775 1.73q-.58-.09-1.115.335T14.4 5.03q0 .18.045.375t.085.325.16.365.17.315.225.37.215.35q.55.96.55 2.46 0 .66-.35 1.91t-.7 2.17l-.35.92-3.03-8.37q.24-.01.445-.05t.295-.08l.08-.04q.24-.02.32-.33t-.03-.605-.35-.285q-1.44.12-2.38.12-.39 0-.97-.03t-.97-.06l-.39-.03q-.24-.01-.35.29t-.03.61.32.32l.92.08 1.26 3.41zM17.41 10q.12-.32.175-.47t.165-.605.145-.85.035-1.02-.09-1.305q1.05 1.93 1.05 4.25 0 2.45-1.19 4.535t-3.21 3.245q2.47-6.61 2.92-7.78zM6.1 18.09Q3.84 17 2.475 14.81T1.11 10q0-1.96.72-3.59 3.36 9.21 4.27 11.68zm4.03-6.63l2.58 6.98q-1.33.45-2.71.45-1.21 0-2.29-.33.28-.83 1.125-3.295t1.295-3.805z"/></symbol></svg>