<svg xmlns="http://www.w3.org/2000/svg" viewBox="0 0 20 20" enable-background="new 0 0 20 20"><path d="M6.56 6.56c-.294.293-.648.44-1.061.44s-.766-.147-1.059-.44c-.294-.293-.44-.646-.44-1.06 0-.413.146-.767.44-1.06.293-.294.646-.44 1.059-.44s.767.146 1.061.44c.293.293.439.646.439 1.06 0 .413-.146.766-.439 1.06zm0 5c-.294.294-.648.44-1.061.44s-.767-.146-1.06-.44c-.294-.293-.44-.646-.44-1.06 0-.413.146-.767.44-1.06.294-.294.647-.44 1.06-.44s.767.146 1.061.44c.293.293.439.647.439 1.06 0 .413-.146.767-.439 1.06zm0 5c-.294.294-.648.44-1.061.44s-.767-.146-1.06-.44c-.294-.293-.44-.646-.44-1.06s.146-.767.44-1.061c.294-.293.647-.439 1.06-.439s.767.146 1.061.439c.293.294.439.647.439 1.061s-.146.767-.439 1.06zm1.439-11.56h9v1h-9v-1zm0 5h9v1h-9v-1zm0 5h9v1h-9v-1zm-1.439-8.44c-.294.293-.648.44-1.061.44s-.766-.147-1.059-.44c-.294-.293-.44-.646-.44-1.06 0-.413.146-.767.44-1.06.293-.294.646-.44 1.059-.44s.767.146 1.061.44c.293.293.439.646.439 1.06 0 .413-.146.766-.439 1.06zm0 5c-.294.294-.648.44-1.061.44s-.767-.146-1.06-.44c-.294-.293-.44-.646-.44-1.06 0-.413.146-.767.44-1.06.294-.294.647-.44 1.06-.44s.767.146 1.061.44c.293.293.439.647.439 1.06 0 .413-.146.767-.439 1.06zm0 5c-.294.294-.648.44-1.061.44s-.767-.146-1.06-.44c-.294-.293-.44-.646-.44-1.06s.146-.767.44-1.061c.294-.293.647-.439 1.06-.439s.767.146 1.061.439c.293.294.439.647.439 1.061s-.146.767-.439 1.06zm1.439-11.56h9v1h-9v-1zm0 5h9v1h-9v-1zm0 5h9v1h-9v-1z"/></svg>