<svg xmlns="http://www.w3.org/2000/svg" viewBox="0 0 20 20" enable-background="new 0 0 20 20"><path d="M8.66 15.25c-.56.5-1.267.75-2.12.75-.967 0-1.775-.358-2.425-1.075-.65-.717-1.049-1.675-1.195-2.875-.113-.906-.05-1.792.189-2.655.24-.863.607-1.633 1.101-2.31s1.052-1.275 1.675-1.795 1.288-.95 1.995-1.29l1.39 1.95c-.92.46-1.672 1.147-2.255 2.06s-.805 1.777-.665 2.59c.413-.093.867-.085 1.36.025s.883.342 1.17.694c.406.514.61 1.147.61 1.9 0 .861-.277 1.538-.83 2.031zm8.05 0c-.561.5-1.267.75-2.12.75-.967 0-1.773-.358-2.42-1.075s-1.044-1.675-1.19-2.875c-.113-.906-.05-1.792.19-2.655s.604-1.633 1.095-2.31 1.047-1.275 1.67-1.795 1.288-.95 1.995-1.29l1.39 1.95c-.92.46-1.671 1.146-2.255 2.06-.583.914-.805 1.777-.665 2.59.414-.093.867-.086 1.36.02s.883.34 1.17.699c.406.514.61 1.147.61 1.9 0 .861-.277 1.538-.83 2.031zm-8.05 0c-.56.5-1.267.75-2.12.75-.967 0-1.775-.358-2.425-1.075-.65-.717-1.049-1.675-1.195-2.875-.113-.906-.05-1.792.189-2.655.24-.863.607-1.633 1.101-2.31s1.052-1.275 1.675-1.795 1.288-.95 1.995-1.29l1.39 1.95c-.92.46-1.672 1.147-2.255 2.06s-.805 1.777-.665 2.59c.413-.093.867-.085 1.36.025s.883.342 1.17.694c.406.514.61 1.147.61 1.9 0 .861-.277 1.538-.83 2.031zm8.05 0c-.561.5-1.267.75-2.12.75-.967 0-1.773-.358-2.42-1.075s-1.044-1.675-1.19-2.875c-.113-.906-.05-1.792.19-2.655s.604-1.633 1.095-2.31 1.047-1.275 1.67-1.795 1.288-.95 1.995-1.29l1.39 1.95c-.92.46-1.671 1.146-2.255 2.06-.583.914-.805 1.777-.665 2.59.414-.093.867-.086 1.36.02s.883.34 1.17.699c.406.514.61 1.147.61 1.9 0 .861-.277 1.538-.83 2.031z"/></svg>