<svg xmlns="http://www.w3.org/2000/svg" viewBox="0 0 20 20" enable-background="new 0 0 20 20"><path d="M9.78 4c1.727 0 2.974.264 3.74.79.779.52 1.17 1.354 1.17 2.5 0 .773-.17 1.41-.51 1.91-.341.5-.794.8-1.36.9v.09c.767.18 1.323.523 1.67 1.03.34.5.51 1.17.51 2.01 0 1.187-.399 2.11-1.2 2.771-.793.666-1.88 1-3.26 1h-4.54v-13.001h3.78zm.29 5.15c.693 0 1.196-.117 1.51-.35.313-.233.47-.616.47-1.15 0-.493-.17-.85-.51-1.07-.347-.213-.883-.32-1.609-.32h-1.361v2.89h1.5zm-1.5 5.57h1.68c.714 0 1.236-.144 1.57-.43.34-.287.51-.733.51-1.34 0-1.073-.72-1.61-2.16-1.61h-1.6v3.38zm1.21-10.72c1.727 0 2.974.264 3.74.79.779.52 1.17 1.354 1.17 2.5 0 .773-.17 1.41-.51 1.91-.341.5-.794.8-1.36.9v.09c.767.18 1.323.523 1.67 1.03.34.5.51 1.17.51 2.01 0 1.187-.399 2.11-1.2 2.771-.793.666-1.88 1-3.26 1h-4.54v-13.001h3.78zm.29 5.15c.693 0 1.196-.117 1.51-.35.313-.233.47-.616.47-1.15 0-.493-.17-.85-.51-1.07-.347-.213-.883-.32-1.609-.32h-1.361v2.89h1.5zm-1.5 5.57h1.68c.714 0 1.236-.144 1.57-.43.34-.287.51-.733.51-1.34 0-1.073-.72-1.61-2.16-1.61h-1.6v3.38z"/></svg>