<svg xmlns="http://www.w3.org/2000/svg" viewBox="0 0 20 20" enable-background="new 0 0 20 20"><path d="M4 2l6 8-8-6 2-2zm-2 6l8 2-8-4v2zm5.83 7.209c-.42.427-.927.641-1.52.641-.594 0-1.101-.214-1.521-.641-.427-.42-.64-.927-.64-1.52 0-.594.213-1.101.64-1.521l1.521-1.529.69-.639-2.35-.74-1.39 1.38c-.84.839-1.26 1.856-1.26 3.049s.42 2.21 1.26 3.05c.847.84 1.863 1.26 3.051 1.26 1.186 0 2.203-.42 3.049-1.26l1.381-1.39-.741-2.35-.641.69-1.529 1.52zm.17-13.209l2 8-4-8h2zm6.695-1c-1.19 0-2.209.42-3.055 1.26l-1.52 1.53c-.307.293-.563.65-.771 1.07l.651 2.14 1.641-1.69.76-.76.77-.76c.42-.427.927-.64 1.52-.64.594 0 1.101.213 1.521.64.42.42.63.927.63 1.52s-.21 1.1-.63 1.52l-.76.76-.761.77-1.691 1.64 2.13.65c.42-.207.78-.463 1.08-.77l1.53-1.52c.84-.847 1.26-1.864 1.26-3.05s-.42-2.203-1.26-3.05c-.84-.841-1.855-1.26-3.045-1.26zm1.305 16.999l-6-8 8 6-2 2zm2-6l-8-2 8 4v-2zm-6 6l-2-8 4 8h-2z"/></svg>