<svg viewBox="0 0 20 20"><symbol viewBox="0 0 20 20" id="dashicons-admin-links"><title>admin-links</title><path d="M7.83 15.72l4.141-4.15c.199.707.204 1.437.015 2.189-.19.754-.559 1.404-1.105 1.95l-1.52 1.53c-.847.84-1.863 1.26-3.05 1.26-1.188 0-2.204-.42-3.051-1.26-.84-.84-1.26-1.856-1.26-3.05s.42-2.21 1.26-3.05l1.53-1.52c.547-.547 1.196-.915 1.95-1.105.753-.19 1.483-.188 2.19.005l-4.14 4.15c-.427.42-.64.927-.64 1.521 0 .593.213 1.104.64 1.53.42.42.927.63 1.521.63.592 0 1.099-.21 1.519-.63zm.76-2.29l5.341-5.34c.206-.207.31-.46.31-.76s-.104-.553-.31-.76c-.228-.213-.487-.316-.78-.31-.294.007-.544.11-.75.31l-5.33 5.34c-.207.207-.311.46-.311.76 0 .301.104.554.311.761.227.213.486.316.78.31.292-.009.539-.112.739-.311zm9.15-10.671c.84.847 1.26 1.864 1.26 3.051s-.42 2.204-1.26 3.05l-1.53 1.52c-.547.547-1.196.915-1.95 1.105-.753.189-1.483.185-2.189-.015l2.62-2.61.76-.77.76-.76c.42-.42.63-.927.63-1.52s-.21-1.1-.63-1.52c-.42-.427-.927-.64-1.52-.64-.594 0-1.101.213-1.521.64l-.77.76-3.38 3.38c-.193-.707-.195-1.437-.005-2.19.189-.753.558-1.403 1.104-1.95l1.521-1.53c.846-.84 1.864-1.26 3.055-1.26 1.189 0 2.205.419 3.045 1.259zm-9.91 12.961l4.141-4.15c.199.707.204 1.437.015 2.189-.19.754-.559 1.404-1.105 1.95l-1.52 1.53c-.847.84-1.863 1.26-3.05 1.26-1.188 0-2.204-.42-3.051-1.26-.84-.84-1.26-1.856-1.26-3.05s.42-2.21 1.26-3.05l1.53-1.52c.547-.547 1.196-.915 1.95-1.105.753-.19 1.483-.188 2.19.005l-4.14 4.15c-.427.42-.64.927-.64 1.521 0 .593.213 1.104.64 1.53.42.42.927.63 1.521.63.592 0 1.099-.21 1.519-.63zm.76-2.29l5.341-5.34c.206-.207.31-.46.31-.76s-.104-.553-.31-.76c-.228-.213-.487-.316-.78-.31-.294.007-.544.11-.75.31l-5.33 5.34c-.207.207-.311.46-.311.76 0 .301.104.554.311.761.227.213.486.316.78.31.292-.009.539-.112.739-.311zm9.15-10.671c.84.847 1.26 1.864 1.26 3.051s-.42 2.204-1.26 3.05l-1.53 1.52c-.547.547-1.196.915-1.95 1.105-.753.189-1.483.185-2.189-.015l2.62-2.61.76-.77.76-.76c.42-.42.63-.927.63-1.52s-.21-1.1-.63-1.52c-.42-.427-.927-.64-1.52-.64-.594 0-1.101.213-1.521.64l-.77.76-3.38 3.38c-.193-.707-.195-1.437-.005-2.19.189-.753.558-1.403 1.104-1.95l1.521-1.53c.846-.84 1.864-1.26 3.055-1.26 1.189 0 2.205.419 3.045 1.259z"/></symbol><symbol viewBox="0 0 20 20" id="dashicons-admin-settings"><title>admin-settings</title><path d="M17.705 16.705c-.197.196-.432.295-.705.295h-13c-.273 0-.508-.099-.705-.295-.197-.197-.295-.432-.295-.705v-12c0-.273.098-.508.295-.705.197-.197.432-.295.705-.295h13c.273 0 .508.099.705.295.196.196.295.431.295.705v12c0 .273-.099.508-.295.705zm-9.705-11.205c0-.14-.048-.258-.145-.355s-.215-.145-.355-.145-.258.048-.355.145-.145.214-.145.355v5.5h-1c-.273 0-.508.099-.705.295s-.295.432-.295.705.098.508.295.705c.197.196.432.295.705.295h1v1.5c0 .14.048.258.145.354s.215.146.355.146.258-.049.355-.146.145-.214.145-.354v-1.5h1c.273 0 .508-.099.705-.295.196-.197.295-.432.295-.705s-.099-.509-.295-.705c-.197-.196-.432-.295-.705-.295h-1v-5.5zm5 9c0 .14.048.258.145.354s.215.146.355.146.258-.049.355-.146.145-.214.145-.354v-5.5h1c.273 0 .508-.098.705-.295.196-.197.295-.432.295-.705s-.099-.508-.295-.705c-.197-.197-.432-.295-.705-.295h-1v-1.5c0-.14-.048-.258-.145-.355s-.215-.145-.355-.145-.258.048-.355.145-.145.214-.145.355v1.5h-1c-.273 0-.508.099-.705.295-.197.196-.295.431-.295.705s.098.508.295.705.432.295.705.295h1v5.5z"/></symbol><symbol viewBox="0 0 20 20" id="dashicons-camera"><title>camera</title><path d="M2 14.999v-8.999h5l2-2h9v11h-16zm1-9.999v-2h3v2h-3zm5 5c0 .827.294 1.533.88 2.12.587.587 1.294.88 2.12.88.827 0 1.533-.293 2.12-.88s.88-1.294.88-2.12-.293-1.533-.88-2.12c-.587-.587-1.293-.88-2.12-.88-.826 0-1.533.293-2.12.88-.586.586-.88 1.293-.88 2.12z"/></symbol><symbol viewBox="0 0 20 20" id="dashicons-edit"><title>edit</title><path d="M13.891 3.39l2.71 2.72c.227.233.338.514.335.84-.004.327-.105.593-.306.8l-8.01 8.02-5.56 1.16 1.16-5.58c5.066-5.086 7.729-7.763 7.989-8.03.193-.2.465-.295.815-.285.351.009.639.128.867.355zm-2.731 2.79l-5.59 5.61 1.11 1.109 5.54-5.65-1.06-1.069zm-2.97 8.23l5.58-5.601-1.07-1.08-5.59 5.601 1.08 1.08z"/></symbol><symbol viewBox="0 0 20 20" id="dashicons-editor-bold"><title>editor-bold</title><path d="M9.78 4c1.727 0 2.974.264 3.74.79.779.52 1.17 1.354 1.17 2.5 0 .773-.17 1.41-.51 1.91-.341.5-.794.8-1.36.9v.09c.767.18 1.323.523 1.67 1.03.34.5.51 1.17.51 2.01 0 1.187-.399 2.11-1.2 2.771-.793.666-1.88 1-3.26 1h-4.54v-13.001h3.78zm.29 5.15c.693 0 1.196-.117 1.51-.35.313-.233.47-.616.47-1.15 0-.493-.17-.85-.51-1.07-.347-.213-.883-.32-1.609-.32h-1.361v2.89h1.5zm-1.5 5.57h1.68c.714 0 1.236-.144 1.57-.43.34-.287.51-.733.51-1.34 0-1.073-.72-1.61-2.16-1.61h-1.6v3.38zm1.21-10.72c1.727 0 2.974.264 3.74.79.779.52 1.17 1.354 1.17 2.5 0 .773-.17 1.41-.51 1.91-.341.5-.794.8-1.36.9v.09c.767.18 1.323.523 1.67 1.03.34.5.51 1.17.51 2.01 0 1.187-.399 2.11-1.2 2.771-.793.666-1.88 1-3.26 1h-4.54v-13.001h3.78zm.29 5.15c.693 0 1.196-.117 1.51-.35.313-.233.47-.616.47-1.15 0-.493-.17-.85-.51-1.07-.347-.213-.883-.32-1.609-.32h-1.361v2.89h1.5zm-1.5 5.57h1.68c.714 0 1.236-.144 1.57-.43.34-.287.51-.733.51-1.34 0-1.073-.72-1.61-2.16-1.61h-1.6v3.38z"/></symbol><symbol viewBox="0 0 20 20" id="dashicons-editor-italic"><title>editor-italic</title><path d="M14.78 6h-2.13l-2.8 9h2.12l-.62 2h-6.75l.62-2h2.14l2.801-9h-2.131l.62-2h6.75l-.62 2zm0 0h-2.13l-2.8 9h2.12l-.62 2h-6.75l.62-2h2.14l2.801-9h-2.131l.62-2h6.75l-.62 2z"/></symbol><symbol viewBox="0 0 20 20" id="dashicons-editor-quote"><title>editor-quote</title><path d="M8.66 15.25c-.56.5-1.267.75-2.12.75-.967 0-1.775-.358-2.425-1.075-.65-.717-1.049-1.675-1.195-2.875-.113-.906-.05-1.792.189-2.655.24-.863.607-1.633 1.101-2.31s1.052-1.275 1.675-1.795 1.288-.95 1.995-1.29l1.39 1.95c-.92.46-1.672 1.147-2.255 2.06s-.805 1.777-.665 2.59c.413-.093.867-.085 1.36.025s.883.342 1.17.694c.406.514.61 1.147.61 1.9 0 .861-.277 1.538-.83 2.031zm8.05 0c-.561.5-1.267.75-2.12.75-.967 0-1.773-.358-2.42-1.075s-1.044-1.675-1.19-2.875c-.113-.906-.05-1.792.19-2.655s.604-1.633 1.095-2.31 1.047-1.275 1.67-1.795 1.288-.95 1.995-1.29l1.39 1.95c-.92.46-1.671 1.146-2.255 2.06-.583.914-.805 1.777-.665 2.59.414-.093.867-.086 1.36.02s.883.34 1.17.699c.406.514.61 1.147.61 1.9 0 .861-.277 1.538-.83 2.031zm-8.05 0c-.56.5-1.267.75-2.12.75-.967 0-1.775-.358-2.425-1.075-.65-.717-1.049-1.675-1.195-2.875-.113-.906-.05-1.792.189-2.655.24-.863.607-1.633 1.101-2.31s1.052-1.275 1.675-1.795 1.288-.95 1.995-1.29l1.39 1.95c-.92.46-1.672 1.147-2.255 2.06s-.805 1.777-.665 2.59c.413-.093.867-.085 1.36.025s.883.342 1.17.694c.406.514.61 1.147.61 1.9 0 .861-.277 1.538-.83 2.031zm8.05 0c-.561.5-1.267.75-2.12.75-.967 0-1.773-.358-2.42-1.075s-1.044-1.675-1.19-2.875c-.113-.906-.05-1.792.19-2.655s.604-1.633 1.095-2.31 1.047-1.275 1.67-1.795 1.288-.95 1.995-1.29l1.39 1.95c-.92.46-1.671 1.146-2.255 2.06-.583.914-.805 1.777-.665 2.59.414-.093.867-.086 1.36.02s.883.34 1.17.699c.406.514.61 1.147.61 1.9 0 .861-.277 1.538-.83 2.031z"/></symbol><symbol viewBox="0 0 20 20" id="dashicons-editor-ul"><title>editor-ul</title><path d="M6.56 6.56c-.294.293-.648.44-1.061.44s-.766-.147-1.059-.44c-.294-.293-.44-.646-.44-1.06 0-.413.146-.767.44-1.06.293-.294.646-.44 1.059-.44s.767.146 1.061.44c.293.293.439.646.439 1.06 0 .413-.146.766-.439 1.06zm0 5c-.294.294-.648.44-1.061.44s-.767-.146-1.06-.44c-.294-.293-.44-.646-.44-1.06 0-.413.146-.767.44-1.06.294-.294.647-.44 1.06-.44s.767.146 1.061.44c.293.293.439.647.439 1.06 0 .413-.146.767-.439 1.06zm0 5c-.294.294-.648.44-1.061.44s-.767-.146-1.06-.44c-.294-.293-.44-.646-.44-1.06s.146-.767.44-1.061c.294-.293.647-.439 1.06-.439s.767.146 1.061.439c.293.294.439.647.439 1.061s-.146.767-.439 1.06zm1.439-11.56h9v1h-9v-1zm0 5h9v1h-9v-1zm0 5h9v1h-9v-1zm-1.439-8.44c-.294.293-.648.44-1.061.44s-.766-.147-1.059-.44c-.294-.293-.44-.646-.44-1.06 0-.413.146-.767.44-1.06.293-.294.646-.44 1.059-.44s.767.146 1.061.44c.293.293.439.646.439 1.06 0 .413-.146.766-.439 1.06zm0 5c-.294.294-.648.44-1.061.44s-.767-.146-1.06-.44c-.294-.293-.44-.646-.44-1.06 0-.413.146-.767.44-1.06.294-.294.647-.44 1.06-.44s.767.146 1.061.44c.293.293.439.647.439 1.06 0 .413-.146.767-.439 1.06zm0 5c-.294.294-.648.44-1.061.44s-.767-.146-1.06-.44c-.294-.293-.44-.646-.44-1.06s.146-.767.44-1.061c.294-.293.647-.439 1.06-.439s.767.146 1.061.439c.293.294.439.647.439 1.061s-.146.767-.439 1.06zm1.439-11.56h9v1h-9v-1zm0 5h9v1h-9v-1zm0 5h9v1h-9v-1z"/></symbol><symbol viewBox="0 0 20 20" id="dashicons-editor-unlink"><title>editor-unlink</title><path d="M4 2l6 8-8-6 2-2zm-2 6l8 2-8-4v2zm5.83 7.209c-.42.427-.927.641-1.52.641-.594 0-1.101-.214-1.521-.641-.427-.42-.64-.927-.64-1.52 0-.594.213-1.101.64-1.521l1.521-1.529.69-.639-2.35-.74-1.39 1.38c-.84.839-1.26 1.856-1.26 3.049s.42 2.21 1.26 3.05c.847.84 1.863 1.26 3.051 1.26 1.186 0 2.203-.42 3.049-1.26l1.381-1.39-.741-2.35-.641.69-1.529 1.52zm.17-13.209l2 8-4-8h2zm6.695-1c-1.19 0-2.209.42-3.055 1.26l-1.52 1.53c-.307.293-.563.65-.771 1.07l.651 2.14 1.641-1.69.76-.76.77-.76c.42-.427.927-.64 1.52-.64.594 0 1.101.213 1.521.64.42.42.63.927.63 1.52s-.21 1.1-.63 1.52l-.76.76-.761.77-1.691 1.64 2.13.65c.42-.207.78-.463 1.08-.77l1.53-1.52c.84-.847 1.26-1.864 1.26-3.05s-.42-2.203-1.26-3.05c-.84-.841-1.855-1.26-3.045-1.26zm1.305 16.999l-6-8 8 6-2 2zm2-6l-8-2 8 4v-2zm-6 6l-2-8 4 8h-2z"/></symbol><symbol viewBox="0 0 20 20" id="dashicons-no"><title>no</title><path d="M15.55 13.7l-2.189 2.06-3.42-3.65-3.641 3.43-2.06-2.181 3.64-3.43-3.42-3.639 2.18-2.06 3.43 3.64 3.64-3.42 2.05 2.18-3.64 3.43 3.43 3.64z"/></symbol><symbol viewBox="0 0 20 20" id="dashicons-wordpress-alt"><title>wordpress-alt</title><path d="M17.07 17.08c-.893.894-1.957 1.604-3.19 2.13s-2.526.79-3.88.79c-1.087 0-2.139-.169-3.155-.505-1.017-.337-1.935-.813-2.755-1.431-.82-.616-1.538-1.335-2.155-2.154-.617-.82-1.093-1.738-1.43-2.756-.337-1.015-.505-2.067-.505-3.154 0-1.354.263-2.646.79-3.88.526-1.233 1.236-2.297 2.13-3.19.894-.894 1.958-1.605 3.195-2.135 1.237-.53 2.531-.795 3.885-.795s2.646.265 3.88.795c1.233.53 2.297 1.242 3.19 2.135.894.893 1.605 1.957 2.135 3.19.53 1.233.795 2.526.795 3.88s-.265 2.649-.795 3.885c-.53 1.236-1.242 2.302-2.135 3.195zm-15.24-10.67c-.48 1.086-.72 2.283-.72 3.59 0 1.747.455 3.35 1.365 4.81.91 1.46 2.118 2.554 3.625 3.28-.607-1.647-2.03-5.54-4.27-11.68zm7.76 3.13l-1.26-3.41-.92-.08c-.16-.006-.267-.113-.32-.32s-.043-.41.03-.61.19-.297.35-.29l.39.03c.26.02.583.04.97.06s.71.03.97.03c.627 0 1.42-.04 2.38-.12.16-.007.276.088.35.285.074.196.083.398.03.605-.054.207-.16.316-.32.33l-.08.04-.295.08c-.137.027-.285.043-.445.05l3.03 8.37.35-.92c.233-.613.467-1.337.7-2.17.233-.834.35-1.471.35-1.911 0-1-.184-1.82-.55-2.46l-.215-.35-.225-.37-.17-.315-.16-.365-.085-.325c-.03-.13-.045-.255-.045-.375 0-.546.178-.961.535-1.245.356-.283.728-.395 1.115-.335-.813-.747-1.738-1.323-2.775-1.73s-2.129-.61-3.275-.61c-1.54 0-2.968.36-4.285 1.08-1.316.72-2.378 1.7-3.185 2.94l.58.01c.613 0 1.403-.037 2.37-.11.16-.006.276.079.35.255.073.177.083.359.03.546s-.16.29-.32.31l-1.17.08 3.41 9.15 1.81-5.83zm-.755 5.725c-.563 1.644-.938 2.742-1.125 3.295.72.22 1.483.33 2.29.33.92 0 1.823-.149 2.71-.45l-2.58-6.979c-.3.893-.732 2.16-1.295 3.804zm5.655 2.514c1.346-.772 2.417-1.854 3.21-3.244.793-1.391 1.19-2.902 1.19-4.536 0-1.546-.35-2.963-1.05-4.25.06.454.09.889.09 1.305s-.012.756-.035 1.02c-.023.263-.072.546-.145.85-.073.304-.128.505-.165.605l-.175.47c-.3.78-1.273 3.374-2.92 7.78z"/></symbol></svg>