<svg xmlns="http://www.w3.org/2000/svg" viewBox="0 0 20 20" enable-background="new 0 0 20 20"><path d="M5.001 3h14v11h-2v2h-2v2h-14v-11h2v-2h2v-2zm9 13.999v-1h-11v-7.999h-1v9h12zm2-2v-1h-11v-7.999h-1v9h12zm2-2v-8.999h-12v9h12zm-11-6.999l10 6h-10v-6zm9.41 2.41c-.394.393-.864.59-1.41.59-.547 0-1.017-.197-1.41-.59-.394-.394-.59-.863-.59-1.41 0-.546.196-1.017.59-1.41.393-.394.863-.59 1.41-.59.546 0 1.017.197 1.41.59.393.394.59.864.59 1.41 0 .546-.198 1.016-.59 1.41zm-11.41-5.41h14v11h-2v2h-2v2h-14v-11h2v-2h2v-2zm9 13.999v-1h-11v-7.999h-1v9h12zm2-2v-1h-11v-7.999h-1v9h12zm2-2v-8.999h-12v9h12zm-11-6.999l10 6h-10v-6zm9.41 2.41c-.394.393-.864.59-1.41.59-.547 0-1.017-.197-1.41-.59-.394-.394-.59-.863-.59-1.41 0-.546.196-1.017.59-1.41.393-.394.863-.59 1.41-.59.546 0 1.017.197 1.41.59.393.394.59.864.59 1.41 0 .546-.198 1.016-.59 1.41z"/></svg>