<svg xmlns="http://www.w3.org/2000/svg" viewBox="0 0 20 20" enable-background="new 0 0 20 20"><path d="M17.07 17.08c-.893.894-1.957 1.604-3.19 2.13s-2.526.79-3.88.79c-1.087 0-2.139-.169-3.155-.505-1.017-.337-1.935-.813-2.755-1.431-.82-.616-1.538-1.335-2.155-2.154-.617-.82-1.093-1.738-1.43-2.756-.337-1.015-.505-2.067-.505-3.154 0-1.354.263-2.646.79-3.88.526-1.233 1.236-2.297 2.13-3.19.894-.894 1.958-1.605 3.195-2.135 1.237-.53 2.531-.795 3.885-.795s2.646.265 3.88.795c1.233.53 2.297 1.242 3.19 2.135.894.893 1.605 1.957 2.135 3.19.53 1.233.795 2.526.795 3.88s-.265 2.649-.795 3.885c-.53 1.236-1.242 2.302-2.135 3.195zm-15.24-10.67c-.48 1.086-.72 2.283-.72 3.59 0 1.747.455 3.35 1.365 4.81.91 1.46 2.118 2.554 3.625 3.28-.607-1.647-2.03-5.54-4.27-11.68zm7.76 3.13l-1.26-3.41-.92-.08c-.16-.006-.267-.113-.32-.32s-.043-.41.03-.61.19-.297.35-.29l.39.03c.26.02.583.04.97.06s.71.03.97.03c.627 0 1.42-.04 2.38-.12.16-.007.276.088.35.285.074.196.083.398.03.605-.054.207-.16.316-.32.33l-.08.04-.295.08c-.137.027-.285.043-.445.05l3.03 8.37.35-.92c.233-.613.467-1.337.7-2.17.233-.834.35-1.471.35-1.911 0-1-.184-1.82-.55-2.46l-.215-.35-.225-.37-.17-.315-.16-.365-.085-.325c-.03-.13-.045-.255-.045-.375 0-.546.178-.961.535-1.245.356-.283.728-.395 1.115-.335-.813-.747-1.738-1.323-2.775-1.73s-2.129-.61-3.275-.61c-1.54 0-2.968.36-4.285 1.08-1.316.72-2.378 1.7-3.185 2.94l.58.01c.613 0 1.403-.037 2.37-.11.16-.006.276.079.35.255.073.177.083.359.03.546s-.16.29-.32.31l-1.17.08 3.41 9.15 1.81-5.83zm-.755 5.725c-.563 1.644-.938 2.742-1.125 3.295.72.22 1.483.33 2.29.33.92 0 1.823-.149 2.71-.45l-2.58-6.979c-.3.893-.732 2.16-1.295 3.804zm5.655 2.514c1.346-.772 2.417-1.854 3.21-3.244.793-1.391 1.19-2.902 1.19-4.536 0-1.546-.35-2.963-1.05-4.25.06.454.09.889.09 1.305s-.012.756-.035 1.02c-.023.263-.072.546-.145.85-.073.304-.128.505-.165.605l-.175.47c-.3.78-1.273 3.374-2.92 7.78z"/></svg>