<svg xmlns="http://www.w3.org/2000/svg" width="20" height="20" viewBox="0 0 20 20"><path d="M17.74 2.76Q19 4.03 19 5.81t-1.26 3.05l-1.53 1.52q-.82.82-1.95 1.105t-2.19-.015l2.62-2.61.76-.77.76-.76q.63-.63.63-1.52t-.63-1.52q-.63-.64-1.52-.64t-1.52.64l-.77.76-3.38 3.38q-.29-1.06-.005-2.19t1.105-1.95l1.52-1.53q1.27-1.26 3.055-1.26t3.045 1.26zM8.59 13.43l5.34-5.34q.31-.31.31-.76t-.31-.76q-.34-.32-.78-.31t-.75.31l-5.33 5.34q-.31.31-.31.76t.31.76q.34.32.78.31t.74-.31zm-.76 2.29l4.14-4.15q.3 1.06.015 2.19t-1.105 1.95l-1.52 1.53Q8.09 18.5 6.31 18.5t-3.05-1.26Q2 15.98 2 14.19t1.26-3.05l1.53-1.52q.82-.82 1.95-1.105t2.19.005l-4.14 4.15q-.64.63-.64 1.52t.64 1.53q.63.63 1.52.63t1.52-.63z"/></svg>