<svg xmlns="http://www.w3.org/2000/svg" width="20" height="20" viewBox="0 0 20 20"><path d="M9.49 13.22q0-1.13-.61-1.9-.43-.53-1.17-.695T6.35 10.6q-.21-1.22.665-2.59T9.27 5.95L7.88 4q-1.06.51-1.995 1.29T4.21 7.085t-1.1 2.31-.19 2.655q.22 1.8 1.195 2.875T6.54 16q1.28 0 2.12-.75.83-.74.83-2.03zm8.05 0q0-1.13-.61-1.9-.43-.54-1.17-.7t-1.36-.02q-.21-1.22.665-2.59t2.255-2.06L15.93 4q-1.06.51-1.995 1.29t-1.67 1.795-1.095 2.31-.19 2.655q.22 1.8 1.19 2.875T14.59 16q1.28 0 2.12-.75.83-.74.83-2.03z"/></svg>