<svg xmlns="http://www.w3.org/2000/svg" width="20" height="20" viewBox="0 0 20 20"><path d="M17.74 2.26Q19 3.53 19 5.31t-1.26 3.05l-1.53 1.52q-.45.46-1.08.77L13 10l1.69-1.64.76-.77.76-.76q.63-.63.63-1.52t-.63-1.52q-.63-.64-1.52-.64t-1.52.64l-.77.76-.76.76L10 7l-.65-2.14q.31-.63.77-1.07l1.52-1.53Q12.91 1 14.695 1t3.045 1.26zM2 4l8 6-6-8zm4-2l4 8-2-8H6zM2 6l8 4-8-2V6zm7.36 7.69L10 13l.74 2.35-1.38 1.39Q8.09 18 6.31 18t-3.05-1.26Q2 15.48 2 13.69t1.26-3.05l1.39-1.38L7 10l-.69.64-1.52 1.53q-.64.63-.64 1.52t.64 1.52q.63.64 1.52.64t1.52-.64zM18 16l-8-6 6 8zm-4 2l-4-8 2 8h2zm4-4l-8-4 8 2v2z"/></svg>