<svg xmlns="http://www.w3.org/2000/svg" width="20" height="20" viewBox="0 0 20 20"><path d="M20 10q0-2.03-.795-3.88T17.07 2.93 13.88.795 10 0 6.115.795 2.92 2.93.79 6.12 0 10q0 1.63.505 3.155t1.43 2.755 2.155 2.155 2.755 1.43T10 20q2.03 0 3.88-.79t3.19-2.13 2.135-3.195T20 10zM7.78 15.37L4.37 6.22l1.17-.08q.24-.03.32-.31t-.03-.545-.35-.255q-1.45.11-2.37.11-.37 0-.58-.01 1.21-1.86 3.185-2.94T10 1.11q1.72 0 3.275.61t2.775 1.73q-.58-.09-1.115.335T14.4 5.03q0 .18.045.375t.085.325.16.365.17.315.225.37.215.35q.55.96.55 2.46 0 .66-.35 1.91t-.7 2.17l-.35.92-3.03-8.37q.24-.01.445-.05t.295-.08l.08-.04q.24-.02.32-.33t-.03-.605-.35-.285q-1.44.12-2.38.12-.39 0-.97-.03t-.97-.06l-.39-.03q-.24-.01-.35.29t-.03.61.32.32l.92.08 1.26 3.41zM17.41 10q.12-.32.175-.47t.165-.605.145-.85.035-1.02-.09-1.305q1.05 1.93 1.05 4.25 0 2.45-1.19 4.535t-3.21 3.245q2.47-6.61 2.92-7.78zM6.1 18.09Q3.84 17 2.475 14.81T1.11 10q0-1.96.72-3.59 3.36 9.21 4.27 11.68zm4.03-6.63l2.58 6.98q-1.33.45-2.71.45-1.21 0-2.29-.33.28-.83 1.125-3.295t1.295-3.805z"/></svg>